<mxfile host="app.diagrams.net" modified="2020-07-25T06:42:41.140Z" agent="5.0 (Windows NT 10.0; Win64; x64) AppleWebKit/537.36 (KHTML, like Gecko) Chrome/84.0.4147.89 Safari/537.36" etag="LSINW4R4oo4PWNWHHiVZ" version="13.5.3" type="github">
  <diagram id="aj_f1GH7QFkEqT03D7m2" name="Page-1">
    <mxGraphModel dx="2076" dy="1094" grid="1" gridSize="10" guides="1" tooltips="1" connect="1" arrows="1" fold="1" page="1" pageScale="1" pageWidth="850" pageHeight="1100" math="0" shadow="0">
      <root>
        <mxCell id="0" />
        <mxCell id="1" parent="0" />
        <mxCell id="OILFMbqtPyrLf8jttxG1-1" value="Features&lt;br&gt;Tools&lt;br&gt;Operations&lt;br&gt;Machines&lt;br&gt;Code formats&lt;br&gt;" style="shape=cylinder;whiteSpace=wrap;html=1;boundedLbl=1;backgroundOutline=1;" vertex="1" parent="1">
          <mxGeometry x="410" y="150" width="140" height="180" as="geometry" />
        </mxCell>
        <mxCell id="OILFMbqtPyrLf8jttxG1-5" value=".DXF" style="shape=note;whiteSpace=wrap;html=1;backgroundOutline=1;darkOpacity=0.05;align=center;" vertex="1" parent="1">
          <mxGeometry x="120" y="190" width="80" height="100" as="geometry" />
        </mxCell>
        <mxCell id="OILFMbqtPyrLf8jttxG1-8" value="" style="edgeStyle=orthogonalEdgeStyle;rounded=0;orthogonalLoop=1;jettySize=auto;html=1;" edge="1" parent="1" source="OILFMbqtPyrLf8jttxG1-6" target="OILFMbqtPyrLf8jttxG1-7">
          <mxGeometry relative="1" as="geometry" />
        </mxCell>
        <mxCell id="OILFMbqtPyrLf8jttxG1-10" value="" style="edgeStyle=orthogonalEdgeStyle;rounded=0;orthogonalLoop=1;jettySize=auto;html=1;" edge="1" parent="1" source="OILFMbqtPyrLf8jttxG1-6" target="OILFMbqtPyrLf8jttxG1-9">
          <mxGeometry relative="1" as="geometry" />
        </mxCell>
        <mxCell id="OILFMbqtPyrLf8jttxG1-6" value="New or Open" style="rounded=1;whiteSpace=wrap;html=1;" vertex="1" parent="1">
          <mxGeometry x="90" y="470" width="120" height="60" as="geometry" />
        </mxCell>
        <mxCell id="OILFMbqtPyrLf8jttxG1-7" value="New" style="rounded=1;whiteSpace=wrap;html=1;" vertex="1" parent="1">
          <mxGeometry x="90" y="610" width="120" height="60" as="geometry" />
        </mxCell>
        <mxCell id="OILFMbqtPyrLf8jttxG1-12" value="" style="edgeStyle=orthogonalEdgeStyle;rounded=0;orthogonalLoop=1;jettySize=auto;html=1;" edge="1" parent="1" source="OILFMbqtPyrLf8jttxG1-9" target="OILFMbqtPyrLf8jttxG1-11">
          <mxGeometry relative="1" as="geometry" />
        </mxCell>
        <mxCell id="OILFMbqtPyrLf8jttxG1-14" value="" style="edgeStyle=orthogonalEdgeStyle;rounded=0;orthogonalLoop=1;jettySize=auto;html=1;" edge="1" parent="1" source="OILFMbqtPyrLf8jttxG1-9" target="OILFMbqtPyrLf8jttxG1-13">
          <mxGeometry relative="1" as="geometry" />
        </mxCell>
        <mxCell id="OILFMbqtPyrLf8jttxG1-9" value="Open" style="whiteSpace=wrap;html=1;rounded=1;" vertex="1" parent="1">
          <mxGeometry x="290" y="470" width="120" height="60" as="geometry" />
        </mxCell>
        <mxCell id="OILFMbqtPyrLf8jttxG1-11" value="DXF" style="whiteSpace=wrap;html=1;rounded=1;" vertex="1" parent="1">
          <mxGeometry x="490" y="470" width="120" height="60" as="geometry" />
        </mxCell>
        <mxCell id="OILFMbqtPyrLf8jttxG1-13" value="CAMO" style="whiteSpace=wrap;html=1;rounded=1;" vertex="1" parent="1">
          <mxGeometry x="290" y="610" width="120" height="60" as="geometry" />
        </mxCell>
        <mxCell id="OILFMbqtPyrLf8jttxG1-83" value="Tools" style="shape=table;startSize=30;container=1;collapsible=1;childLayout=tableLayout;fixedRows=1;rowLines=0;fontStyle=1;align=center;resizeLast=1;" vertex="1" parent="1">
          <mxGeometry x="1230" y="160" width="180" height="160" as="geometry" />
        </mxCell>
        <mxCell id="OILFMbqtPyrLf8jttxG1-84" value="" style="shape=partialRectangle;collapsible=0;dropTarget=0;pointerEvents=0;fillColor=none;top=0;left=0;bottom=1;right=0;points=[[0,0.5],[1,0.5]];portConstraint=eastwest;" vertex="1" parent="OILFMbqtPyrLf8jttxG1-83">
          <mxGeometry y="30" width="180" height="30" as="geometry" />
        </mxCell>
        <mxCell id="OILFMbqtPyrLf8jttxG1-85" value="PK" style="shape=partialRectangle;connectable=0;fillColor=none;top=0;left=0;bottom=0;right=0;fontStyle=1;overflow=hidden;" vertex="1" parent="OILFMbqtPyrLf8jttxG1-84">
          <mxGeometry width="30" height="30" as="geometry" />
        </mxCell>
        <mxCell id="OILFMbqtPyrLf8jttxG1-86" value="UniqueID" style="shape=partialRectangle;connectable=0;fillColor=none;top=0;left=0;bottom=0;right=0;align=left;spacingLeft=6;fontStyle=5;overflow=hidden;" vertex="1" parent="OILFMbqtPyrLf8jttxG1-84">
          <mxGeometry x="30" width="150" height="30" as="geometry" />
        </mxCell>
        <mxCell id="OILFMbqtPyrLf8jttxG1-87" value="" style="shape=partialRectangle;collapsible=0;dropTarget=0;pointerEvents=0;fillColor=none;top=0;left=0;bottom=0;right=0;points=[[0,0.5],[1,0.5]];portConstraint=eastwest;" vertex="1" parent="OILFMbqtPyrLf8jttxG1-83">
          <mxGeometry y="60" width="180" height="30" as="geometry" />
        </mxCell>
        <mxCell id="OILFMbqtPyrLf8jttxG1-88" value="" style="shape=partialRectangle;connectable=0;fillColor=none;top=0;left=0;bottom=0;right=0;editable=1;overflow=hidden;" vertex="1" parent="OILFMbqtPyrLf8jttxG1-87">
          <mxGeometry width="30" height="30" as="geometry" />
        </mxCell>
        <mxCell id="OILFMbqtPyrLf8jttxG1-89" value="Row 1" style="shape=partialRectangle;connectable=0;fillColor=none;top=0;left=0;bottom=0;right=0;align=left;spacingLeft=6;overflow=hidden;" vertex="1" parent="OILFMbqtPyrLf8jttxG1-87">
          <mxGeometry x="30" width="150" height="30" as="geometry" />
        </mxCell>
        <mxCell id="OILFMbqtPyrLf8jttxG1-90" value="" style="shape=partialRectangle;collapsible=0;dropTarget=0;pointerEvents=0;fillColor=none;top=0;left=0;bottom=0;right=0;points=[[0,0.5],[1,0.5]];portConstraint=eastwest;" vertex="1" parent="OILFMbqtPyrLf8jttxG1-83">
          <mxGeometry y="90" width="180" height="30" as="geometry" />
        </mxCell>
        <mxCell id="OILFMbqtPyrLf8jttxG1-91" value="" style="shape=partialRectangle;connectable=0;fillColor=none;top=0;left=0;bottom=0;right=0;editable=1;overflow=hidden;" vertex="1" parent="OILFMbqtPyrLf8jttxG1-90">
          <mxGeometry width="30" height="30" as="geometry" />
        </mxCell>
        <mxCell id="OILFMbqtPyrLf8jttxG1-92" value="Row 2" style="shape=partialRectangle;connectable=0;fillColor=none;top=0;left=0;bottom=0;right=0;align=left;spacingLeft=6;overflow=hidden;" vertex="1" parent="OILFMbqtPyrLf8jttxG1-90">
          <mxGeometry x="30" width="150" height="30" as="geometry" />
        </mxCell>
        <mxCell id="OILFMbqtPyrLf8jttxG1-93" value="" style="shape=partialRectangle;collapsible=0;dropTarget=0;pointerEvents=0;fillColor=none;top=0;left=0;bottom=0;right=0;points=[[0,0.5],[1,0.5]];portConstraint=eastwest;" vertex="1" parent="OILFMbqtPyrLf8jttxG1-83">
          <mxGeometry y="120" width="180" height="30" as="geometry" />
        </mxCell>
        <mxCell id="OILFMbqtPyrLf8jttxG1-94" value="" style="shape=partialRectangle;connectable=0;fillColor=none;top=0;left=0;bottom=0;right=0;editable=1;overflow=hidden;" vertex="1" parent="OILFMbqtPyrLf8jttxG1-93">
          <mxGeometry width="30" height="30" as="geometry" />
        </mxCell>
        <mxCell id="OILFMbqtPyrLf8jttxG1-95" value="Row 3" style="shape=partialRectangle;connectable=0;fillColor=none;top=0;left=0;bottom=0;right=0;align=left;spacingLeft=6;overflow=hidden;" vertex="1" parent="OILFMbqtPyrLf8jttxG1-93">
          <mxGeometry x="30" width="150" height="30" as="geometry" />
        </mxCell>
        <mxCell id="OILFMbqtPyrLf8jttxG1-20" value=".CAMO" style="shape=table;startSize=30;container=1;collapsible=1;childLayout=tableLayout;fixedRows=1;rowLines=0;fontStyle=1;align=center;resizeLast=1;" vertex="1" parent="1">
          <mxGeometry x="310" y="740" width="180" height="280" as="geometry" />
        </mxCell>
        <mxCell id="OILFMbqtPyrLf8jttxG1-21" value="" style="shape=partialRectangle;collapsible=0;dropTarget=0;pointerEvents=0;fillColor=none;top=0;left=0;bottom=1;right=0;points=[[0,0.5],[1,0.5]];portConstraint=eastwest;" vertex="1" parent="OILFMbqtPyrLf8jttxG1-20">
          <mxGeometry y="30" width="180" height="30" as="geometry" />
        </mxCell>
        <mxCell id="OILFMbqtPyrLf8jttxG1-22" value="" style="shape=partialRectangle;connectable=0;fillColor=none;top=0;left=0;bottom=0;right=0;fontStyle=1;overflow=hidden;" vertex="1" parent="OILFMbqtPyrLf8jttxG1-21">
          <mxGeometry width="30" height="30" as="geometry" />
        </mxCell>
        <mxCell id="OILFMbqtPyrLf8jttxG1-23" value="data" style="shape=partialRectangle;connectable=0;fillColor=none;top=0;left=0;bottom=0;right=0;align=left;spacingLeft=6;fontStyle=5;overflow=hidden;" vertex="1" parent="OILFMbqtPyrLf8jttxG1-21">
          <mxGeometry x="30" width="150" height="30" as="geometry" />
        </mxCell>
        <mxCell id="OILFMbqtPyrLf8jttxG1-27" value="" style="shape=partialRectangle;collapsible=0;dropTarget=0;pointerEvents=0;fillColor=none;top=0;left=0;bottom=0;right=0;points=[[0,0.5],[1,0.5]];portConstraint=eastwest;" vertex="1" parent="OILFMbqtPyrLf8jttxG1-20">
          <mxGeometry y="60" width="180" height="30" as="geometry" />
        </mxCell>
        <mxCell id="OILFMbqtPyrLf8jttxG1-28" value="" style="shape=partialRectangle;connectable=0;fillColor=none;top=0;left=0;bottom=0;right=0;editable=1;overflow=hidden;" vertex="1" parent="OILFMbqtPyrLf8jttxG1-27">
          <mxGeometry width="30" height="30" as="geometry" />
        </mxCell>
        <mxCell id="OILFMbqtPyrLf8jttxG1-29" value="DXF references" style="shape=partialRectangle;connectable=0;fillColor=none;top=0;left=0;bottom=0;right=0;align=left;spacingLeft=6;overflow=hidden;" vertex="1" parent="OILFMbqtPyrLf8jttxG1-27">
          <mxGeometry x="30" width="150" height="30" as="geometry" />
        </mxCell>
        <mxCell id="OILFMbqtPyrLf8jttxG1-44" value="" style="shape=partialRectangle;collapsible=0;dropTarget=0;pointerEvents=0;fillColor=none;top=0;left=0;bottom=0;right=0;points=[[0,0.5],[1,0.5]];portConstraint=eastwest;" vertex="1" parent="OILFMbqtPyrLf8jttxG1-20">
          <mxGeometry y="90" width="180" height="30" as="geometry" />
        </mxCell>
        <mxCell id="OILFMbqtPyrLf8jttxG1-45" value="" style="shape=partialRectangle;connectable=0;fillColor=none;top=0;left=0;bottom=0;right=0;editable=1;overflow=hidden;" vertex="1" parent="OILFMbqtPyrLf8jttxG1-44">
          <mxGeometry width="30" height="30" as="geometry" />
        </mxCell>
        <mxCell id="OILFMbqtPyrLf8jttxG1-46" value="Setup ID - qb" style="shape=partialRectangle;connectable=0;fillColor=none;top=0;left=0;bottom=0;right=0;align=left;spacingLeft=6;overflow=hidden;" vertex="1" parent="OILFMbqtPyrLf8jttxG1-44">
          <mxGeometry x="30" width="150" height="30" as="geometry" />
        </mxCell>
        <mxCell id="OILFMbqtPyrLf8jttxG1-30" value="" style="shape=partialRectangle;collapsible=0;dropTarget=0;pointerEvents=0;fillColor=none;top=0;left=0;bottom=0;right=0;points=[[0,0.5],[1,0.5]];portConstraint=eastwest;" vertex="1" parent="OILFMbqtPyrLf8jttxG1-20">
          <mxGeometry y="120" width="180" height="30" as="geometry" />
        </mxCell>
        <mxCell id="OILFMbqtPyrLf8jttxG1-31" value="" style="shape=partialRectangle;connectable=0;fillColor=none;top=0;left=0;bottom=0;right=0;editable=1;overflow=hidden;" vertex="1" parent="OILFMbqtPyrLf8jttxG1-30">
          <mxGeometry width="30" height="30" as="geometry" />
        </mxCell>
        <mxCell id="OILFMbqtPyrLf8jttxG1-32" value="geometry objects" style="shape=partialRectangle;connectable=0;fillColor=none;top=0;left=0;bottom=0;right=0;align=left;spacingLeft=6;overflow=hidden;" vertex="1" parent="OILFMbqtPyrLf8jttxG1-30">
          <mxGeometry x="30" width="150" height="30" as="geometry" />
        </mxCell>
        <mxCell id="OILFMbqtPyrLf8jttxG1-24" value="" style="shape=partialRectangle;collapsible=0;dropTarget=0;pointerEvents=0;fillColor=none;top=0;left=0;bottom=0;right=0;points=[[0,0.5],[1,0.5]];portConstraint=eastwest;" vertex="1" parent="OILFMbqtPyrLf8jttxG1-20">
          <mxGeometry y="150" width="180" height="20" as="geometry" />
        </mxCell>
        <mxCell id="OILFMbqtPyrLf8jttxG1-25" value="" style="shape=partialRectangle;connectable=0;fillColor=none;top=0;left=0;bottom=0;right=0;editable=1;overflow=hidden;" vertex="1" parent="OILFMbqtPyrLf8jttxG1-24">
          <mxGeometry width="30" height="20" as="geometry" />
        </mxCell>
        <mxCell id="OILFMbqtPyrLf8jttxG1-26" value="Setups" style="shape=partialRectangle;connectable=0;fillColor=none;top=0;left=0;bottom=0;right=0;align=left;spacingLeft=6;overflow=hidden;" vertex="1" parent="OILFMbqtPyrLf8jttxG1-24">
          <mxGeometry x="30" width="150" height="20" as="geometry" />
        </mxCell>
        <mxCell id="OILFMbqtPyrLf8jttxG1-35" value="" style="shape=partialRectangle;collapsible=0;dropTarget=0;pointerEvents=0;fillColor=none;top=0;left=0;bottom=0;right=0;points=[[0,0.5],[1,0.5]];portConstraint=eastwest;" vertex="1" parent="OILFMbqtPyrLf8jttxG1-20">
          <mxGeometry y="170" width="180" height="30" as="geometry" />
        </mxCell>
        <mxCell id="OILFMbqtPyrLf8jttxG1-36" value="" style="shape=partialRectangle;connectable=0;fillColor=none;top=0;left=0;bottom=0;right=0;editable=1;overflow=hidden;" vertex="1" parent="OILFMbqtPyrLf8jttxG1-35">
          <mxGeometry width="30" height="30" as="geometry" />
        </mxCell>
        <mxCell id="OILFMbqtPyrLf8jttxG1-37" value="Features" style="shape=partialRectangle;connectable=0;fillColor=none;top=0;left=0;bottom=0;right=0;align=left;spacingLeft=6;overflow=hidden;" vertex="1" parent="OILFMbqtPyrLf8jttxG1-35">
          <mxGeometry x="30" width="150" height="30" as="geometry" />
        </mxCell>
        <mxCell id="OILFMbqtPyrLf8jttxG1-38" value="" style="shape=partialRectangle;collapsible=0;dropTarget=0;pointerEvents=0;fillColor=none;top=0;left=0;bottom=0;right=0;points=[[0,0.5],[1,0.5]];portConstraint=eastwest;" vertex="1" parent="OILFMbqtPyrLf8jttxG1-20">
          <mxGeometry y="200" width="180" height="30" as="geometry" />
        </mxCell>
        <mxCell id="OILFMbqtPyrLf8jttxG1-39" value="" style="shape=partialRectangle;connectable=0;fillColor=none;top=0;left=0;bottom=0;right=0;editable=1;overflow=hidden;" vertex="1" parent="OILFMbqtPyrLf8jttxG1-38">
          <mxGeometry width="30" height="30" as="geometry" />
        </mxCell>
        <mxCell id="OILFMbqtPyrLf8jttxG1-40" value="Operations" style="shape=partialRectangle;connectable=0;fillColor=none;top=0;left=0;bottom=0;right=0;align=left;spacingLeft=6;overflow=hidden;" vertex="1" parent="OILFMbqtPyrLf8jttxG1-38">
          <mxGeometry x="30" width="150" height="30" as="geometry" />
        </mxCell>
        <mxCell id="OILFMbqtPyrLf8jttxG1-41" value="" style="shape=partialRectangle;collapsible=0;dropTarget=0;pointerEvents=0;fillColor=none;top=0;left=0;bottom=0;right=0;points=[[0,0.5],[1,0.5]];portConstraint=eastwest;" vertex="1" parent="OILFMbqtPyrLf8jttxG1-20">
          <mxGeometry y="230" width="180" height="30" as="geometry" />
        </mxCell>
        <mxCell id="OILFMbqtPyrLf8jttxG1-42" value="" style="shape=partialRectangle;connectable=0;fillColor=none;top=0;left=0;bottom=0;right=0;editable=1;overflow=hidden;" vertex="1" parent="OILFMbqtPyrLf8jttxG1-41">
          <mxGeometry width="30" height="30" as="geometry" />
        </mxCell>
        <mxCell id="OILFMbqtPyrLf8jttxG1-43" value="Tools" style="shape=partialRectangle;connectable=0;fillColor=none;top=0;left=0;bottom=0;right=0;align=left;spacingLeft=6;overflow=hidden;" vertex="1" parent="OILFMbqtPyrLf8jttxG1-41">
          <mxGeometry x="30" width="150" height="30" as="geometry" />
        </mxCell>
        <mxCell id="OILFMbqtPyrLf8jttxG1-79" value="" style="edgeStyle=orthogonalEdgeStyle;rounded=0;orthogonalLoop=1;jettySize=auto;html=1;" edge="1" parent="1" source="OILFMbqtPyrLf8jttxG1-53" target="OILFMbqtPyrLf8jttxG1-66">
          <mxGeometry relative="1" as="geometry" />
        </mxCell>
        <mxCell id="OILFMbqtPyrLf8jttxG1-53" value="Features" style="shape=table;startSize=30;container=1;collapsible=1;childLayout=tableLayout;fixedRows=1;rowLines=0;fontStyle=1;align=center;resizeLast=1;" vertex="1" parent="1">
          <mxGeometry x="710" y="160" width="180" height="160" as="geometry" />
        </mxCell>
        <mxCell id="OILFMbqtPyrLf8jttxG1-54" value="" style="shape=partialRectangle;collapsible=0;dropTarget=0;pointerEvents=0;fillColor=none;top=0;left=0;bottom=1;right=0;points=[[0,0.5],[1,0.5]];portConstraint=eastwest;" vertex="1" parent="OILFMbqtPyrLf8jttxG1-53">
          <mxGeometry y="30" width="180" height="30" as="geometry" />
        </mxCell>
        <mxCell id="OILFMbqtPyrLf8jttxG1-55" value="PK" style="shape=partialRectangle;connectable=0;fillColor=none;top=0;left=0;bottom=0;right=0;fontStyle=1;overflow=hidden;" vertex="1" parent="OILFMbqtPyrLf8jttxG1-54">
          <mxGeometry width="30" height="30" as="geometry" />
        </mxCell>
        <mxCell id="OILFMbqtPyrLf8jttxG1-56" value="UniqueID" style="shape=partialRectangle;connectable=0;fillColor=none;top=0;left=0;bottom=0;right=0;align=left;spacingLeft=6;fontStyle=5;overflow=hidden;" vertex="1" parent="OILFMbqtPyrLf8jttxG1-54">
          <mxGeometry x="30" width="150" height="30" as="geometry" />
        </mxCell>
        <mxCell id="OILFMbqtPyrLf8jttxG1-57" value="" style="shape=partialRectangle;collapsible=0;dropTarget=0;pointerEvents=0;fillColor=none;top=0;left=0;bottom=0;right=0;points=[[0,0.5],[1,0.5]];portConstraint=eastwest;" vertex="1" parent="OILFMbqtPyrLf8jttxG1-53">
          <mxGeometry y="60" width="180" height="30" as="geometry" />
        </mxCell>
        <mxCell id="OILFMbqtPyrLf8jttxG1-58" value="" style="shape=partialRectangle;connectable=0;fillColor=none;top=0;left=0;bottom=0;right=0;editable=1;overflow=hidden;" vertex="1" parent="OILFMbqtPyrLf8jttxG1-57">
          <mxGeometry width="30" height="30" as="geometry" />
        </mxCell>
        <mxCell id="OILFMbqtPyrLf8jttxG1-59" value="Row 1" style="shape=partialRectangle;connectable=0;fillColor=none;top=0;left=0;bottom=0;right=0;align=left;spacingLeft=6;overflow=hidden;" vertex="1" parent="OILFMbqtPyrLf8jttxG1-57">
          <mxGeometry x="30" width="150" height="30" as="geometry" />
        </mxCell>
        <mxCell id="OILFMbqtPyrLf8jttxG1-60" value="" style="shape=partialRectangle;collapsible=0;dropTarget=0;pointerEvents=0;fillColor=none;top=0;left=0;bottom=0;right=0;points=[[0,0.5],[1,0.5]];portConstraint=eastwest;" vertex="1" parent="OILFMbqtPyrLf8jttxG1-53">
          <mxGeometry y="90" width="180" height="30" as="geometry" />
        </mxCell>
        <mxCell id="OILFMbqtPyrLf8jttxG1-61" value="" style="shape=partialRectangle;connectable=0;fillColor=none;top=0;left=0;bottom=0;right=0;editable=1;overflow=hidden;" vertex="1" parent="OILFMbqtPyrLf8jttxG1-60">
          <mxGeometry width="30" height="30" as="geometry" />
        </mxCell>
        <mxCell id="OILFMbqtPyrLf8jttxG1-62" value="Row 2" style="shape=partialRectangle;connectable=0;fillColor=none;top=0;left=0;bottom=0;right=0;align=left;spacingLeft=6;overflow=hidden;" vertex="1" parent="OILFMbqtPyrLf8jttxG1-60">
          <mxGeometry x="30" width="150" height="30" as="geometry" />
        </mxCell>
        <mxCell id="OILFMbqtPyrLf8jttxG1-63" value="" style="shape=partialRectangle;collapsible=0;dropTarget=0;pointerEvents=0;fillColor=none;top=0;left=0;bottom=0;right=0;points=[[0,0.5],[1,0.5]];portConstraint=eastwest;" vertex="1" parent="OILFMbqtPyrLf8jttxG1-53">
          <mxGeometry y="120" width="180" height="30" as="geometry" />
        </mxCell>
        <mxCell id="OILFMbqtPyrLf8jttxG1-64" value="" style="shape=partialRectangle;connectable=0;fillColor=none;top=0;left=0;bottom=0;right=0;editable=1;overflow=hidden;" vertex="1" parent="OILFMbqtPyrLf8jttxG1-63">
          <mxGeometry width="30" height="30" as="geometry" />
        </mxCell>
        <mxCell id="OILFMbqtPyrLf8jttxG1-65" value="Row 3" style="shape=partialRectangle;connectable=0;fillColor=none;top=0;left=0;bottom=0;right=0;align=left;spacingLeft=6;overflow=hidden;" vertex="1" parent="OILFMbqtPyrLf8jttxG1-63">
          <mxGeometry x="30" width="150" height="30" as="geometry" />
        </mxCell>
        <mxCell id="OILFMbqtPyrLf8jttxG1-66" value="Operations" style="shape=table;startSize=30;container=1;collapsible=1;childLayout=tableLayout;fixedRows=1;rowLines=0;fontStyle=1;align=center;resizeLast=1;" vertex="1" parent="1">
          <mxGeometry x="970" y="160" width="180" height="160" as="geometry" />
        </mxCell>
        <mxCell id="OILFMbqtPyrLf8jttxG1-67" value="" style="shape=partialRectangle;collapsible=0;dropTarget=0;pointerEvents=0;fillColor=none;top=0;left=0;bottom=1;right=0;points=[[0,0.5],[1,0.5]];portConstraint=eastwest;" vertex="1" parent="OILFMbqtPyrLf8jttxG1-66">
          <mxGeometry y="30" width="180" height="30" as="geometry" />
        </mxCell>
        <mxCell id="OILFMbqtPyrLf8jttxG1-68" value="PK" style="shape=partialRectangle;connectable=0;fillColor=none;top=0;left=0;bottom=0;right=0;fontStyle=1;overflow=hidden;" vertex="1" parent="OILFMbqtPyrLf8jttxG1-67">
          <mxGeometry width="30" height="30" as="geometry" />
        </mxCell>
        <mxCell id="OILFMbqtPyrLf8jttxG1-69" value="UniqueID" style="shape=partialRectangle;connectable=0;fillColor=none;top=0;left=0;bottom=0;right=0;align=left;spacingLeft=6;fontStyle=5;overflow=hidden;" vertex="1" parent="OILFMbqtPyrLf8jttxG1-67">
          <mxGeometry x="30" width="150" height="30" as="geometry" />
        </mxCell>
        <mxCell id="OILFMbqtPyrLf8jttxG1-70" value="" style="shape=partialRectangle;collapsible=0;dropTarget=0;pointerEvents=0;fillColor=none;top=0;left=0;bottom=0;right=0;points=[[0,0.5],[1,0.5]];portConstraint=eastwest;" vertex="1" parent="OILFMbqtPyrLf8jttxG1-66">
          <mxGeometry y="60" width="180" height="30" as="geometry" />
        </mxCell>
        <mxCell id="OILFMbqtPyrLf8jttxG1-71" value="" style="shape=partialRectangle;connectable=0;fillColor=none;top=0;left=0;bottom=0;right=0;editable=1;overflow=hidden;" vertex="1" parent="OILFMbqtPyrLf8jttxG1-70">
          <mxGeometry width="30" height="30" as="geometry" />
        </mxCell>
        <mxCell id="OILFMbqtPyrLf8jttxG1-72" value="Row 1" style="shape=partialRectangle;connectable=0;fillColor=none;top=0;left=0;bottom=0;right=0;align=left;spacingLeft=6;overflow=hidden;" vertex="1" parent="OILFMbqtPyrLf8jttxG1-70">
          <mxGeometry x="30" width="150" height="30" as="geometry" />
        </mxCell>
        <mxCell id="OILFMbqtPyrLf8jttxG1-73" value="" style="shape=partialRectangle;collapsible=0;dropTarget=0;pointerEvents=0;fillColor=none;top=0;left=0;bottom=0;right=0;points=[[0,0.5],[1,0.5]];portConstraint=eastwest;" vertex="1" parent="OILFMbqtPyrLf8jttxG1-66">
          <mxGeometry y="90" width="180" height="30" as="geometry" />
        </mxCell>
        <mxCell id="OILFMbqtPyrLf8jttxG1-74" value="" style="shape=partialRectangle;connectable=0;fillColor=none;top=0;left=0;bottom=0;right=0;editable=1;overflow=hidden;" vertex="1" parent="OILFMbqtPyrLf8jttxG1-73">
          <mxGeometry width="30" height="30" as="geometry" />
        </mxCell>
        <mxCell id="OILFMbqtPyrLf8jttxG1-75" value="Row 2" style="shape=partialRectangle;connectable=0;fillColor=none;top=0;left=0;bottom=0;right=0;align=left;spacingLeft=6;overflow=hidden;" vertex="1" parent="OILFMbqtPyrLf8jttxG1-73">
          <mxGeometry x="30" width="150" height="30" as="geometry" />
        </mxCell>
        <mxCell id="OILFMbqtPyrLf8jttxG1-76" value="" style="shape=partialRectangle;collapsible=0;dropTarget=0;pointerEvents=0;fillColor=none;top=0;left=0;bottom=0;right=0;points=[[0,0.5],[1,0.5]];portConstraint=eastwest;" vertex="1" parent="OILFMbqtPyrLf8jttxG1-66">
          <mxGeometry y="120" width="180" height="30" as="geometry" />
        </mxCell>
        <mxCell id="OILFMbqtPyrLf8jttxG1-77" value="" style="shape=partialRectangle;connectable=0;fillColor=none;top=0;left=0;bottom=0;right=0;editable=1;overflow=hidden;" vertex="1" parent="OILFMbqtPyrLf8jttxG1-76">
          <mxGeometry width="30" height="30" as="geometry" />
        </mxCell>
        <mxCell id="OILFMbqtPyrLf8jttxG1-78" value="Row 3" style="shape=partialRectangle;connectable=0;fillColor=none;top=0;left=0;bottom=0;right=0;align=left;spacingLeft=6;overflow=hidden;" vertex="1" parent="OILFMbqtPyrLf8jttxG1-76">
          <mxGeometry x="30" width="150" height="30" as="geometry" />
        </mxCell>
        <mxCell id="OILFMbqtPyrLf8jttxG1-96" style="edgeStyle=orthogonalEdgeStyle;rounded=0;orthogonalLoop=1;jettySize=auto;html=1;" edge="1" parent="1" target="OILFMbqtPyrLf8jttxG1-66">
          <mxGeometry relative="1" as="geometry">
            <mxPoint x="1230" y="240" as="sourcePoint" />
            <Array as="points">
              <mxPoint x="1230" y="240" />
            </Array>
          </mxGeometry>
        </mxCell>
        <mxCell id="OILFMbqtPyrLf8jttxG1-110" style="edgeStyle=orthogonalEdgeStyle;rounded=0;orthogonalLoop=1;jettySize=auto;html=1;exitX=0.5;exitY=0;exitDx=0;exitDy=0;entryX=0.5;entryY=1;entryDx=0;entryDy=0;" edge="1" parent="1" source="OILFMbqtPyrLf8jttxG1-97" target="OILFMbqtPyrLf8jttxG1-66">
          <mxGeometry relative="1" as="geometry" />
        </mxCell>
        <mxCell id="OILFMbqtPyrLf8jttxG1-97" value="CAMOnion Ops" style="shape=table;startSize=30;container=1;collapsible=1;childLayout=tableLayout;fixedRows=1;rowLines=0;fontStyle=1;align=center;resizeLast=1;" vertex="1" parent="1">
          <mxGeometry x="970" y="410" width="180" height="160" as="geometry" />
        </mxCell>
        <mxCell id="OILFMbqtPyrLf8jttxG1-98" value="" style="shape=partialRectangle;collapsible=0;dropTarget=0;pointerEvents=0;fillColor=none;top=0;left=0;bottom=1;right=0;points=[[0,0.5],[1,0.5]];portConstraint=eastwest;" vertex="1" parent="OILFMbqtPyrLf8jttxG1-97">
          <mxGeometry y="30" width="180" height="30" as="geometry" />
        </mxCell>
        <mxCell id="OILFMbqtPyrLf8jttxG1-99" value="PK" style="shape=partialRectangle;connectable=0;fillColor=none;top=0;left=0;bottom=0;right=0;fontStyle=1;overflow=hidden;" vertex="1" parent="OILFMbqtPyrLf8jttxG1-98">
          <mxGeometry width="30" height="30" as="geometry" />
        </mxCell>
        <mxCell id="OILFMbqtPyrLf8jttxG1-100" value="UniqueID" style="shape=partialRectangle;connectable=0;fillColor=none;top=0;left=0;bottom=0;right=0;align=left;spacingLeft=6;fontStyle=5;overflow=hidden;" vertex="1" parent="OILFMbqtPyrLf8jttxG1-98">
          <mxGeometry x="30" width="150" height="30" as="geometry" />
        </mxCell>
        <mxCell id="OILFMbqtPyrLf8jttxG1-101" value="" style="shape=partialRectangle;collapsible=0;dropTarget=0;pointerEvents=0;fillColor=none;top=0;left=0;bottom=0;right=0;points=[[0,0.5],[1,0.5]];portConstraint=eastwest;" vertex="1" parent="OILFMbqtPyrLf8jttxG1-97">
          <mxGeometry y="60" width="180" height="30" as="geometry" />
        </mxCell>
        <mxCell id="OILFMbqtPyrLf8jttxG1-102" value="" style="shape=partialRectangle;connectable=0;fillColor=none;top=0;left=0;bottom=0;right=0;editable=1;overflow=hidden;" vertex="1" parent="OILFMbqtPyrLf8jttxG1-101">
          <mxGeometry width="30" height="30" as="geometry" />
        </mxCell>
        <mxCell id="OILFMbqtPyrLf8jttxG1-103" value="Row 1" style="shape=partialRectangle;connectable=0;fillColor=none;top=0;left=0;bottom=0;right=0;align=left;spacingLeft=6;overflow=hidden;" vertex="1" parent="OILFMbqtPyrLf8jttxG1-101">
          <mxGeometry x="30" width="150" height="30" as="geometry" />
        </mxCell>
        <mxCell id="OILFMbqtPyrLf8jttxG1-104" value="" style="shape=partialRectangle;collapsible=0;dropTarget=0;pointerEvents=0;fillColor=none;top=0;left=0;bottom=0;right=0;points=[[0,0.5],[1,0.5]];portConstraint=eastwest;" vertex="1" parent="OILFMbqtPyrLf8jttxG1-97">
          <mxGeometry y="90" width="180" height="30" as="geometry" />
        </mxCell>
        <mxCell id="OILFMbqtPyrLf8jttxG1-105" value="" style="shape=partialRectangle;connectable=0;fillColor=none;top=0;left=0;bottom=0;right=0;editable=1;overflow=hidden;" vertex="1" parent="OILFMbqtPyrLf8jttxG1-104">
          <mxGeometry width="30" height="30" as="geometry" />
        </mxCell>
        <mxCell id="OILFMbqtPyrLf8jttxG1-106" value="Row 2" style="shape=partialRectangle;connectable=0;fillColor=none;top=0;left=0;bottom=0;right=0;align=left;spacingLeft=6;overflow=hidden;" vertex="1" parent="OILFMbqtPyrLf8jttxG1-104">
          <mxGeometry x="30" width="150" height="30" as="geometry" />
        </mxCell>
        <mxCell id="OILFMbqtPyrLf8jttxG1-107" value="" style="shape=partialRectangle;collapsible=0;dropTarget=0;pointerEvents=0;fillColor=none;top=0;left=0;bottom=0;right=0;points=[[0,0.5],[1,0.5]];portConstraint=eastwest;" vertex="1" parent="OILFMbqtPyrLf8jttxG1-97">
          <mxGeometry y="120" width="180" height="30" as="geometry" />
        </mxCell>
        <mxCell id="OILFMbqtPyrLf8jttxG1-108" value="" style="shape=partialRectangle;connectable=0;fillColor=none;top=0;left=0;bottom=0;right=0;editable=1;overflow=hidden;" vertex="1" parent="OILFMbqtPyrLf8jttxG1-107">
          <mxGeometry width="30" height="30" as="geometry" />
        </mxCell>
        <mxCell id="OILFMbqtPyrLf8jttxG1-109" value="Row 3" style="shape=partialRectangle;connectable=0;fillColor=none;top=0;left=0;bottom=0;right=0;align=left;spacingLeft=6;overflow=hidden;" vertex="1" parent="OILFMbqtPyrLf8jttxG1-107">
          <mxGeometry x="30" width="150" height="30" as="geometry" />
        </mxCell>
        <mxCell id="OILFMbqtPyrLf8jttxG1-111" value="Machines" style="shape=table;startSize=30;container=1;collapsible=1;childLayout=tableLayout;fixedRows=1;rowLines=0;fontStyle=1;align=center;resizeLast=1;" vertex="1" parent="1">
          <mxGeometry x="710" y="410" width="180" height="160" as="geometry" />
        </mxCell>
        <mxCell id="OILFMbqtPyrLf8jttxG1-112" value="" style="shape=partialRectangle;collapsible=0;dropTarget=0;pointerEvents=0;fillColor=none;top=0;left=0;bottom=1;right=0;points=[[0,0.5],[1,0.5]];portConstraint=eastwest;" vertex="1" parent="OILFMbqtPyrLf8jttxG1-111">
          <mxGeometry y="30" width="180" height="30" as="geometry" />
        </mxCell>
        <mxCell id="OILFMbqtPyrLf8jttxG1-113" value="PK" style="shape=partialRectangle;connectable=0;fillColor=none;top=0;left=0;bottom=0;right=0;fontStyle=1;overflow=hidden;" vertex="1" parent="OILFMbqtPyrLf8jttxG1-112">
          <mxGeometry width="30" height="30" as="geometry" />
        </mxCell>
        <mxCell id="OILFMbqtPyrLf8jttxG1-114" value="UniqueID" style="shape=partialRectangle;connectable=0;fillColor=none;top=0;left=0;bottom=0;right=0;align=left;spacingLeft=6;fontStyle=5;overflow=hidden;" vertex="1" parent="OILFMbqtPyrLf8jttxG1-112">
          <mxGeometry x="30" width="150" height="30" as="geometry" />
        </mxCell>
        <mxCell id="OILFMbqtPyrLf8jttxG1-115" value="" style="shape=partialRectangle;collapsible=0;dropTarget=0;pointerEvents=0;fillColor=none;top=0;left=0;bottom=0;right=0;points=[[0,0.5],[1,0.5]];portConstraint=eastwest;" vertex="1" parent="OILFMbqtPyrLf8jttxG1-111">
          <mxGeometry y="60" width="180" height="30" as="geometry" />
        </mxCell>
        <mxCell id="OILFMbqtPyrLf8jttxG1-116" value="" style="shape=partialRectangle;connectable=0;fillColor=none;top=0;left=0;bottom=0;right=0;editable=1;overflow=hidden;" vertex="1" parent="OILFMbqtPyrLf8jttxG1-115">
          <mxGeometry width="30" height="30" as="geometry" />
        </mxCell>
        <mxCell id="OILFMbqtPyrLf8jttxG1-117" value="Row 1" style="shape=partialRectangle;connectable=0;fillColor=none;top=0;left=0;bottom=0;right=0;align=left;spacingLeft=6;overflow=hidden;" vertex="1" parent="OILFMbqtPyrLf8jttxG1-115">
          <mxGeometry x="30" width="150" height="30" as="geometry" />
        </mxCell>
        <mxCell id="OILFMbqtPyrLf8jttxG1-118" value="" style="shape=partialRectangle;collapsible=0;dropTarget=0;pointerEvents=0;fillColor=none;top=0;left=0;bottom=0;right=0;points=[[0,0.5],[1,0.5]];portConstraint=eastwest;" vertex="1" parent="OILFMbqtPyrLf8jttxG1-111">
          <mxGeometry y="90" width="180" height="30" as="geometry" />
        </mxCell>
        <mxCell id="OILFMbqtPyrLf8jttxG1-119" value="" style="shape=partialRectangle;connectable=0;fillColor=none;top=0;left=0;bottom=0;right=0;editable=1;overflow=hidden;" vertex="1" parent="OILFMbqtPyrLf8jttxG1-118">
          <mxGeometry width="30" height="30" as="geometry" />
        </mxCell>
        <mxCell id="OILFMbqtPyrLf8jttxG1-120" value="Row 2" style="shape=partialRectangle;connectable=0;fillColor=none;top=0;left=0;bottom=0;right=0;align=left;spacingLeft=6;overflow=hidden;" vertex="1" parent="OILFMbqtPyrLf8jttxG1-118">
          <mxGeometry x="30" width="150" height="30" as="geometry" />
        </mxCell>
        <mxCell id="OILFMbqtPyrLf8jttxG1-121" value="" style="shape=partialRectangle;collapsible=0;dropTarget=0;pointerEvents=0;fillColor=none;top=0;left=0;bottom=0;right=0;points=[[0,0.5],[1,0.5]];portConstraint=eastwest;" vertex="1" parent="OILFMbqtPyrLf8jttxG1-111">
          <mxGeometry y="120" width="180" height="30" as="geometry" />
        </mxCell>
        <mxCell id="OILFMbqtPyrLf8jttxG1-122" value="" style="shape=partialRectangle;connectable=0;fillColor=none;top=0;left=0;bottom=0;right=0;editable=1;overflow=hidden;" vertex="1" parent="OILFMbqtPyrLf8jttxG1-121">
          <mxGeometry width="30" height="30" as="geometry" />
        </mxCell>
        <mxCell id="OILFMbqtPyrLf8jttxG1-123" value="Row 3" style="shape=partialRectangle;connectable=0;fillColor=none;top=0;left=0;bottom=0;right=0;align=left;spacingLeft=6;overflow=hidden;" vertex="1" parent="OILFMbqtPyrLf8jttxG1-121">
          <mxGeometry x="30" width="150" height="30" as="geometry" />
        </mxCell>
      </root>
    </mxGraphModel>
  </diagram>
</mxfile>
